<svg width="32" height="32" viewBox="0 0 32 32" fill="none" xmlns="http://www.w3.org/2000/svg">
<path d="M15.7999 7.58142C11.3402 7.58142 7.64502 11.2129 7.64502 15.7363C7.64502 20.2596 11.2765 23.8911 15.7999 23.8911C20.3232 23.8911 23.9547 20.1959 23.9547 15.7363C23.9547 11.2766 20.2595 7.58142 15.7999 7.58142ZM15.7999 20.9605C12.9329 20.9605 10.5757 18.6032 10.5757 15.7363C10.5757 12.8693 12.9329 10.5121 15.7999 10.5121C18.6668 10.5121 21.0241 12.8693 21.0241 15.7363C21.0241 18.6032 18.6668 20.9605 15.7999 20.9605Z" fill="#C2CFD7"/>
<path d="M24.2734 9.23789C25.2938 9.23789 26.1209 8.4107 26.1209 7.3903C26.1209 6.36991 25.2938 5.54272 24.2734 5.54272C23.253 5.54272 22.4258 6.36991 22.4258 7.3903C22.4258 8.4107 23.253 9.23789 24.2734 9.23789Z" fill="#C2CFD7"/>
<path d="M29.0516 2.6121C27.3952 0.891935 25.0379 0 22.3621 0H9.2379C3.69516 0 0 3.69516 0 9.2379V22.2984C0 25.0379 0.891935 27.3952 2.67581 29.1153C4.39597 30.7718 6.68952 31.6 9.30161 31.6H22.2984C25.0379 31.6 27.3315 30.7081 28.9879 29.1153C30.7081 27.4589 31.6 25.1016 31.6 22.3621V9.2379C31.6 6.5621 30.7081 4.26855 29.0516 2.6121ZM28.7968 22.3621C28.7968 24.3371 28.096 25.9298 26.9492 27.0129C25.8024 28.096 24.2097 28.6694 22.2984 28.6694H9.30161C7.39032 28.6694 5.79758 28.096 4.65081 27.0129C3.50403 25.8661 2.93065 24.2734 2.93065 22.2984V9.2379C2.93065 7.32661 3.50403 5.73387 4.65081 4.5871C5.73387 3.50403 7.39032 2.93064 9.30161 2.93064H22.4258C24.3371 2.93064 25.9298 3.50403 27.0766 4.65081C28.1597 5.79758 28.7968 7.39032 28.7968 9.2379V22.3621Z" fill="#C2CFD7"/>
</svg>
