<svg width="35" height="35" viewBox="0 0 35 35" fill="none" xmlns="http://www.w3.org/2000/svg">
<path d="M14.3082 28.6164C6.45702 28.6164 0 22.2327 0 14.3082C0 6.45702 6.38365 0 14.3082 0C22.2327 0 28.6164 6.38365 28.6164 14.3082C28.543 22.2327 22.1593 28.6164 14.3082 28.6164ZM14.3082 2.12788C7.55765 2.12788 2.05451 7.63102 2.05451 14.3815C2.05451 21.1321 7.55765 26.6352 14.3082 26.6352C21.0587 26.6352 26.5618 21.1321 26.5618 14.3815C26.4885 7.63102 20.9853 2.12788 14.3082 2.12788Z" fill="#FC758C"/>
<path d="M33.3858 35L23.4067 25.0944L25.021 23.4801L34.9267 33.4591L33.3858 35Z" fill="#FC758C"/>
</svg>
