<svg width="34" height="28" viewBox="0 0 34 28" fill="none" xmlns="http://www.w3.org/2000/svg">
<path d="M34 3.31448C32.7501 3.8775 31.4049 4.25728 29.9935 4.42724C31.4346 3.55298 32.5396 2.16816 33.0607 0.516161C31.7128 1.32677 30.2206 1.91497 28.6311 2.2325C27.3592 0.85887 25.5461 0 23.5397 0C19.6879 0 16.5648 3.16481 16.5648 7.06889C16.5648 7.62212 16.6263 8.16136 16.7457 8.67962C10.9482 8.38447 5.80781 5.57076 2.36729 1.2939C1.76684 2.33741 1.42314 3.55158 1.42314 4.84828C1.42314 7.30039 2.65441 9.46435 4.52616 10.7317C3.38323 10.6946 2.30725 10.3764 1.36654 9.84693C1.36585 9.87631 1.36585 9.90638 1.36585 9.93645C1.36585 13.3607 3.77042 16.2171 6.96178 16.8676C6.37651 17.0284 5.76019 17.1152 5.12385 17.1152C4.67385 17.1152 4.23697 17.0711 3.81114 16.9879C4.69939 19.796 7.27512 21.8403 10.3271 21.897C7.93975 23.7931 4.93267 24.9233 1.66401 24.9233C1.10152 24.9233 0.545927 24.8897 0 24.824C3.08783 26.8306 6.75403 28 10.6929 28C23.5239 28 30.5395 17.2292 30.5395 7.8879C30.5395 7.58156 30.5333 7.27592 30.5201 6.97237C31.8825 5.97782 33.0655 4.73218 34 3.31448Z" fill="#C2CFD7"/>
</svg>
